<svg xmlns="http://www.w3.org/2000/svg" viewBox="0 0 1207.9 287.32"><defs><style>.cls-1{fill:none;stroke:#fff;stroke-miterlimit:10;}.cls-2{fill:#fff;}</style></defs><g id="Laag_2" data-name="Laag 2"><g id="Laag_1-2" data-name="Laag 1"><path class="cls-1" d="M811.1,136.16v146.9H867v-6.12c0-23.76.54-47.53-.24-71.26-.35-10.51,4.65-16.58,12.5-21.34,13.46-8.16,26.78-.78,27.31,14.88.06,1.77,0,3.54,0,5.3v78.56H963v-5.59q0-38.53.06-77.05c0-2,0-4.61,1.23-5.88,3.54-3.85,7.17-8,11.64-10.55,13.76-7.81,26.21-.49,26.69,15.2,0,1.44,0,2.89,0,4.33V283h56.12c0-33.46.15-66.52-.14-99.58a61.93,61.93,0,0,0-3.13-17.45c-4.51-14.59-12.4-26.58-28.27-30.78-18.16-4.81-35.17-1.38-50.64,8.85-6.37,4.22-12,9.64-18.08,14.67-9.68-16.17-23.83-25.35-43.56-25.58-19-.23-34.16,8-48.09,22.19v-19.2ZM.5,283.09a13.25,13.25,0,0,0,1.86.32c31.55,0,63.11.37,94.65-.17,17.4-.29,33.94-4.76,46.86-17.34,14.06-13.69,22.2-30.42,23.74-50.19,3.62-46.32-29.77-82.7-76.38-82.27-11.39.11-22.76,2.68-34.69,4.19V93.24H.5ZM1122.91.52c-45.81-.94-84.8,37.4-85.07,83.89-.26,45.22,36.37,84.78,84,85,47.08.23,85.08-37.29,85.55-83.51C1207.88,37.75,1168-.15,1122.91.52ZM715.37,286.75c0-.27.09-.53.13-.8,3.86-.2,7.71-.38,11.56-.61C766.9,283,795,257.57,800.4,218.56c4.66-33.57-15.82-71.4-51.63-80.72-22.76-5.93-45.4-6.34-68.06.06A67.86,67.86,0,0,0,647.43,159c-37.75,43-15.77,110.75,37.08,123C694.62,284.3,705.08,285.19,715.37,286.75ZM260,286.4c8.36-.78,14.31-1.13,20.19-1.91,42.49-5.62,68.72-36.08,67.73-78.8-.61-26.38-18.53-57.84-49.28-67a129.17,129.17,0,0,0-56.72-4c-18.13,2.73-34.14,9.41-46.76,23.41-38.58,42.76-16.95,111.37,36.28,123.76C241.55,284.28,252,285.18,260,286.4Zm357.3-97.51c0-15.07.08-30.28-.15-45.48,0-1.21-2-3-3.41-3.47-18.91-6.19-38.28-8.41-58-5.53-15.74,2.3-30.21,7.68-41.46,19.56C500,169,492.45,186.91,491.39,207.63c-1.62,31.72,16.67,60.49,46.31,71.91,26.26,10.11,52.35,7.46,78.17-2a4.16,4.16,0,0,0,2.37-2.92c.15-14.89.1-29.78.1-45.18-1.76.65-3.07,1.12-4.37,1.63-13.29,5.23-26.77,9.13-41.31,6.18s-24.77-13.9-24.88-27.11c-.12-14.61,8.81-25.65,24.29-28.3a64.05,64.05,0,0,1,21,.19C601.22,183.43,609,186.48,617.3,188.89Zm-206,94.41V93.14H355.61V283.3Zm77.07-31.76c-.07-19.55-14.14-34-33-33.88-18.74.08-33.08,14.83-33.09,34,0,18.73,15,34.17,33.22,34.16C473.88,285.82,488.47,270.63,488.4,251.54Z"/><path class="cls-2" d="M811.1,136.16h55.78v19.2c13.93-14.24,29-22.42,48.09-22.19,19.73.23,33.88,9.41,43.56,25.58,6.13-5,11.71-10.45,18.08-14.67,15.47-10.23,32.48-13.66,50.64-8.85,15.87,4.2,23.76,16.19,28.27,30.78a61.93,61.93,0,0,1,3.13,17.45c.29,33.06.14,66.12.14,99.58h-56.12v-79.5c0-1.44,0-2.89,0-4.33-.48-15.69-12.93-23-26.69-15.2-4.47,2.53-8.1,6.7-11.64,10.55-1.18,1.27-1.23,3.88-1.23,5.88Q963,239,963,277.49v5.59H906.6V204.52c0-1.76,0-3.53,0-5.3-.53-15.66-13.85-23-27.31-14.88-7.85,4.76-12.85,10.83-12.5,21.34.78,23.73.24,47.5.24,71.26v6.12H811.1Z"/><path class="cls-2" d="M.5,283.09V93.24h56v44.39c11.93-1.51,23.3-4.08,34.69-4.19,46.61-.43,80,35.95,76.38,82.27-1.54,19.77-9.68,36.5-23.74,50.19C131,278.48,114.41,283,97,283.24c-31.54.54-63.1.17-94.65.17A13.25,13.25,0,0,1,.5,283.09Zm56.09-74.31v18.77c0,7.24,0,7.48,7.29,8.34,10.91,1.27,21.89,2,32.14-3.24,10.83-5.48,16.15-14.36,15.37-26.55-.73-11.64-6.89-19.41-17.73-23.42-11.5-4.25-23.1-3.15-34.58.12-1.11.31-2.33,2.49-2.37,3.84C56.48,194,56.6,201.4,56.59,208.78Z"/><path class="cls-1" d="M1122.91.52c45.06-.67,85,37.23,84.49,85.4-.47,46.22-38.47,83.74-85.55,83.51-47.64-.24-84.27-39.8-84-85C1038.11,37.92,1077.1-.42,1122.91.52Zm-42.74,72.27,1.67-.47a15.17,15.17,0,0,0,1.22-2.54c2.83-10.42,16.36-19.37,28.79-18.27,7.28.65,10.07,5,6.51,11.45a31.5,31.5,0,0,1-4.37,5.7c-6.54,7.19-14.83,11.93-23.81,15-4.83,1.67-10.37,2-15.53,1.73-5.75-.28-7.48-3.17-7.86-8.9-.48-7.35,2.32-13.45,6.49-19.16a88.75,88.75,0,0,1,29.48-25.84c1.21-.67,2.65-3.42,2.22-4.1-1.31-2.09-2.83-5.23-6.33-3.3-16,8.81-29.45,20.37-36.79,37.39-6.62,15.37.89,28,17.48,30.68,12.18,2,22.22-3.48,31.76-10,6.36-4.32,11.41-9.85,13.39-17.62a16.43,16.43,0,0,0-8.61-18.49c-16.31-8.22-34.91,5.83-37.66,21.71C1078,69.32,1079.48,71.12,1080.17,72.79Zm69.44,20.32c13.84,0,25.36-6.78,31.84-18.88,8.51-15.88-2-33.46-20-32.81-14.19.51-24.53,8.71-33.14,19.13-.82,1,1.08,4.23,1.71,6.42,1.52-.47,3.23-.65,4.51-1.48,1.44-.94,2.46-2.51,3.74-3.73a47.09,47.09,0,0,1,26.42-12.87c10.81-1.54,16.74,5.87,12.59,16a35.59,35.59,0,0,1-21.92,20.4c-4.65,1.62-10.12,1.62-15.14,1.27-5.56-.39-7.11-4.73-3.92-9.33.64-.92,1.66-1.61,2.14-2.58s1.07-2.53.64-3.24a3.94,3.94,0,0,0-3.16-1.23c-4.51.38-7.66,5.78-6.32,10.54C1132,88.84,1138.73,93.07,1149.61,93.11Zm-8.69,42.7-1.29-1.53c-3.33.69-6.67,1.36-10,2.09-7.65,1.69-15.23,3.87-23,5-5.26.75-11.52,1.49-14.83-4.18s-.64-11.46,2.82-15.68c7.18-8.76,15.3-16.75,23.08-25,1.55-1.64,4.87-2.72,2.79-5.61-1.91-2.67-5-3.77-8-1.45-10.29,7.89-19.46,16.89-25.16,28.71-6.82,14.15-1,26.34,14.25,29.62,12.82,2.77,24.91-.05,36.06-6.65C1139.23,140.15,1139.85,137.61,1140.92,135.81Z"/><path class="cls-2" d="M715.37,286.75c-10.29-1.56-20.75-2.45-30.86-4.8-52.85-12.24-74.83-80-37.08-123a67.86,67.86,0,0,1,33.28-21.06c22.66-6.4,45.3-6,68.06-.06,35.81,9.32,56.29,47.15,51.63,80.72-5.41,39-33.5,64.43-73.34,66.78-3.85.23-7.7.41-11.56.61C715.46,286.22,715.42,286.48,715.37,286.75ZM685,209.28c-.06,17.24,11.92,28.94,29.69,29s30-11.58,30-28.72-12.07-28.77-30-28.72C697,180.87,685,192.34,685,209.28Z"/><path class="cls-2" d="M260,286.4c-8-1.22-18.45-2.12-28.56-4.48-53.23-12.39-74.86-81-36.28-123.76,12.62-14,28.63-20.68,46.76-23.41a129.17,129.17,0,0,1,56.72,4c30.75,9.13,48.67,40.59,49.28,67,1,42.72-25.24,73.18-67.73,78.8C274.31,285.27,268.36,285.62,260,286.4Zm1.57-48.14c17.9.05,30-11.44,30.12-28.6s-12-28.82-29.88-28.83c-17.69,0-29.72,11.42-29.82,28.35C231.88,226.44,243.85,238.21,261.57,238.26Z"/><path class="cls-2" d="M617.3,188.89c-8.26-2.41-16.08-5.46-24.19-6.82a64.05,64.05,0,0,0-21-.19c-15.48,2.65-24.41,13.69-24.29,28.3.11,13.21,10.2,24.14,24.88,27.11s28-.95,41.31-6.18c1.3-.51,2.61-1,4.37-1.63,0,15.4,0,30.29-.1,45.18a4.16,4.16,0,0,1-2.37,2.92c-25.82,9.42-51.91,12.07-78.17,2-29.64-11.42-47.93-40.19-46.31-71.91C492.45,186.91,500,169,514.25,154c11.25-11.88,25.72-17.26,41.46-19.56,19.75-2.88,39.12-.66,58,5.53,1.41.46,3.39,2.26,3.41,3.47C617.38,158.61,617.3,173.82,617.3,188.89Z"/><path class="cls-2" d="M411.33,283.3H355.61V93.14h55.72Z"/><path class="cls-2" d="M488.4,251.54c.07,19.09-14.52,34.28-32.92,34.29-18.21,0-33.22-15.43-33.22-34.16,0-19.18,14.35-33.93,33.09-34C474.26,217.57,488.33,232,488.4,251.54Z"/><path class="cls-2" d="M1080.17,72.79c-.69-1.67-2.21-3.47-2-5,2.75-15.88,21.35-29.93,37.66-21.71a16.43,16.43,0,0,1,8.61,18.49c-2,7.77-7,13.3-13.39,17.62-9.54,6.48-19.58,11.94-31.76,10-16.59-2.69-24.1-15.31-17.48-30.68,7.34-17,20.8-28.58,36.79-37.39,3.5-1.93,5,1.21,6.33,3.3.43.68-1,3.43-2.22,4.1a88.75,88.75,0,0,0-29.48,25.84c-4.17,5.71-7,11.81-6.49,19.16.38,5.73,2.11,8.62,7.86,8.9,5.16.25,10.7-.06,15.53-1.73,9-3.09,17.27-7.83,23.81-15a31.5,31.5,0,0,0,4.37-5.7c3.56-6.44.77-10.8-6.51-11.45-12.43-1.1-26,7.85-28.79,18.27a15.17,15.17,0,0,1-1.22,2.54Z"/><path class="cls-2" d="M1149.61,93.11c-10.88,0-17.66-4.27-20-12.43-1.34-4.76,1.81-10.16,6.32-10.54a3.94,3.94,0,0,1,3.16,1.23c.43.71-.14,2.24-.64,3.24s-1.5,1.66-2.14,2.58c-3.19,4.6-1.64,8.94,3.92,9.33,5,.35,10.49.35,15.14-1.27a35.59,35.59,0,0,0,21.92-20.4c4.15-10.09-1.78-17.5-12.59-16a47.09,47.09,0,0,0-26.42,12.87c-1.28,1.22-2.3,2.79-3.74,3.73-1.28.83-3,1-4.51,1.48-.63-2.19-2.53-5.43-1.71-6.42,8.61-10.42,19-18.62,33.14-19.13,18-.65,28.46,16.93,20,32.81C1175,86.33,1163.45,93.16,1149.61,93.11Z"/><path class="cls-2" d="M1140.92,135.81c-1.07,1.8-1.69,4.34-3.26,5.28-11.15,6.6-23.24,9.42-36.06,6.65-15.24-3.28-21.07-15.47-14.25-29.62,5.7-11.82,14.87-20.82,25.16-28.71,3-2.32,6.12-1.22,8,1.45,2.08,2.89-1.24,4-2.79,5.61-7.78,8.26-15.9,16.25-23.08,25-3.46,4.22-6.09,10.09-2.82,15.68s9.57,4.93,14.83,4.18c7.73-1.1,15.31-3.28,23-5,3.32-.73,6.66-1.4,10-2.09Z"/></g></g></svg>