<svg xmlns="http://www.w3.org/2000/svg" viewBox="0 0 383.03 336.94"><defs><style>.cls-1{fill:#fff;}</style></defs><g id="Laag_2" data-name="Laag 2"><g id="Laag_1-2" data-name="Laag 1"><path class="cls-1" d="M0,8.35C3,1.87,8.12-.13,15.08,0,31.54.34,48,.11,64.48.12c7.83,0,11.23,2.61,13.42,10.25L87.84,45h4.93q138.09,0,276.17,0a25.3,25.3,0,0,1,5.58.32c7,1.58,10,8,7.77,15.9Q370.65,102,359,142.78q-10.22,35.73-20.46,71.46c-2.31,8-5.53,10.43-14,10.43q-94.11,0-188.23-.1c-4,0-5.89,1.23-7.5,4.73-4.51,9.79.3,17.82,11,17.83H324.67a22.22,22.22,0,0,1,4.83.31,11.17,11.17,0,0,1-2.56,22.1c-11.47.1-22.95,0-34.43,0h-4.05c4,1.82,8.42,3.11,12,5.59a37.71,37.71,0,0,1,9.68,9.67,33.31,33.31,0,0,1,4.94,12.32,37,37,0,0,1-.17,13.67c-3.25,15.86-18.15,26.85-34.58,26.06-16.11-.78-29.32-13.23-31.59-29.77-2.31-16.82,8.2-31.08,27.93-37.39H175.29c9.05,2.29,16.53,6.91,21.76,14.75a33,33,0,0,1,5.06,25.69c-3.1,15.63-17.52,27.07-33.77,26.75-16.48-.32-30-12.58-32.6-29.48s7.76-31,28.18-37.86c-8.6,0-16.43,0-24.26,0-27.17-.06-43.2-25.69-30.95-49.9a18.93,18.93,0,0,0,1.49-15.06C93,145.07,76,85.42,59,25.79c-.27-.95-.61-1.89-1.05-3.22H52.5c-12.47,0-24.95-.27-37.42.1C8.11,22.88,3,20.81,0,14.34ZM357.07,67.71H94.3q19.28,67.5,38.38,134.35h186C331.47,157.3,344.22,112.66,357.07,67.71ZM180.38,303.58A11.22,11.22,0,1,0,169,314.48,11.36,11.36,0,0,0,180.38,303.58Zm101.73,10.9A11.22,11.22,0,1,0,271,303.28,11.35,11.35,0,0,0,282.11,314.48Z"/></g></g></svg>