<svg xmlns="http://www.w3.org/2000/svg" viewBox="0 0 409.6 374.97"><defs><style>.cls-1{fill:#fff;}</style></defs><g id="Laag_2" data-name="Laag 2"><g id="Laag_1-2" data-name="Laag 1"><path class="cls-1" d="M409.6,130.08c-1,5.87-1.81,11.76-2.94,17.6-4,20.8-13.19,39.21-26.5,55.59a110.78,110.78,0,0,1-8.06,8.31L213.68,369.65c-7.09,7.07-10.68,7.09-17.72.08q-76.29-76-152.58-152c-12.49-12.46-23.9-25.71-31.27-42A133.24,133.24,0,0,1,.65,132.34c-.12-1.3-.43-2.57-.65-3.86V111.71c.5-3.39,1-6.79,1.51-10.18C7,65.42,23.38,35.64,54.62,15.82,84.76-3.31,116.46-5.6,148.54,11.73c21.11,11.4,37.85,27.85,52.89,46.22,1.06,1.29,2.13,2.56,3.4,4.1l3.59-4.41c13.28-16.31,28.16-30.87,46.05-42.15C283.78-3,314.35-5,345.28,10.31c32.6,16.18,51.51,43.6,60.29,78.32,1.9,7.55,2.71,15.38,4,23.08ZM205.4,354.76a43.3,43.3,0,0,1,3.29-4.17q77.19-77.07,154.37-154.14a83.9,83.9,0,0,0,11-13.66c18-27.86,22.71-58.16,15-90.18-7-29-22.7-52.08-49.59-66.24-19-10-38.92-12.35-59.42-4.59-16.4,6.21-30.2,16.42-42.09,29-9,9.54-17.11,20-25.48,30.15-4.5,5.46-10.82,5.59-15.14,0-1.3-1.68-2.51-3.44-3.78-5.15-12.17-16.31-25.88-31.12-42.72-42.75-12-8.27-24.87-14.66-39.68-15.47C82.89,16.05,60.4,27.72,42.48,48.72c-14,16.43-21.77,35.73-24.36,57.12A116,116,0,0,0,27.9,169.2c6.78,14.87,17.64,26.51,29,37.8q72.36,72.28,144.91,144.39C202.68,352.31,203.67,353.16,205.4,354.76Z"/></g></g></svg>