<svg xmlns="http://www.w3.org/2000/svg" viewBox="0 0 409.6 408.8"><defs><style>.cls-1{fill:#0000a4;}</style></defs><g id="Laag_2" data-name="Laag 2"><g id="Laag_1-2" data-name="Laag 1"><path class="cls-1" d="M0,150.91c1-6.69,1.76-13.43,3.11-20Q15.25,71.44,63.15,34A157.46,157.46,0,0,1,144.21,1c35.41-3.88,68.64,3.21,99.43,21.17s53.07,43.29,67.3,75.67c11.93,27.17,15.69,55.6,11.8,85-3.82,28.88-14.85,54.71-32.53,77.8-.48.63-.95,1.28-1.39,1.94a6.88,6.88,0,0,1-1.21,1.75,23.3,23.3,0,0,1,4,2.63q54.08,53.86,108,107.87c3.84,3.86,6.66,8.73,10,13.13v7.19A20.35,20.35,0,0,1,396,408.8h-7.2c-4.32-3.19-9.1-5.91-12.87-9.65q-54.35-53.86-108.4-108c-1.18-1.18-2.41-2.31-3.64-3.48-2,1.48-3.59,2.69-5.22,3.84-47,33.34-98.13,41.81-152.27,21.81C51.89,293.18,18.11,253.4,4.06,197.14c-2-8.06-2.74-16.44-4.06-24.67Zm290.15,11A128.09,128.09,0,0,0,162.22,34.16C91.86,34,34.33,91.34,34.22,161.75c-.1,70.2,57.33,127.93,127.84,127.76C232.75,289.34,289.46,233.13,290.15,161.91Z"/></g></g></svg>