<svg xmlns="http://www.w3.org/2000/svg" viewBox="0 0 341.45 427.31"><defs><style>.cls-1{fill:#fff;}</style></defs><g id="Laag_2" data-name="Laag 2"><g id="Laag_1-2" data-name="Laag 1"><path class="cls-1" d="M63.14,427.31c-4.78-1.19-9.64-2-14.32-3.63C19.76,413.76,1.54,387.41.27,351.44-1.06,314.1,2.4,277.3,14.44,242.34c7.77-22.57,19.05-42.09,38-54a65.76,65.76,0,0,1,37.25-10.54c4.12.09,8.47,2.56,12.24,5,6.07,3.9,11.69,8.73,17.59,13q51.39,37.44,102.76-.08c4.75-3.48,9.61-6.83,14.07-10.78,8.19-7.24,17.21-8.14,26.94-6.46,26.57,4.61,45.33,21.77,58,49.15,11.3,24.45,16.38,51,18.64,78.35,1.17,14.05,1.71,28.24,1.57,42.35-.43,42.15-24.95,73.51-60.49,78.14a13.28,13.28,0,0,0-2.6.88ZM170.65,399q48,0,96,0a98,98,0,0,0,13.14-.91c20-2.76,34.6-19.16,37-42.53,2-19,.45-38-1.83-56.85-2.38-19.66-6.29-38.85-14.38-56.54-9.55-20.88-23.33-34.45-44.17-35.86a9.1,9.1,0,0,0-5.58,1.54c-6.06,4.27-11.88,9-17.88,13.38-16.47,12-34.36,19.36-53.66,21.12-26.43,2.4-50.58-6.09-72.82-22.72-5.29-4-10.53-8-15.84-11.91-1.09-.8-2.44-1.69-3.63-1.62-12.94.7-24.57,5.45-33.9,16.46-7.45,8.79-12.74,19.34-16.63,30.8C26,284.4,23.36,317,24.23,350.05c.6,22.73,11.3,39.21,28.43,45.28a66,66,0,0,0,21.22,3.51C106.13,399.2,138.39,399,170.65,399Z"/><path class="cls-1" d="M266.88,99.15c0,54.8-46,98.31-99.15,98C112.29,196.78,68.62,150.44,69.46,97,70.31,43.22,115.89-1,170.1,0,223.15,1,267.66,45.43,266.88,99.15Zm-24-.58a74.67,74.67,0,1,0-74.67,74.53A74.3,74.3,0,0,0,242.9,98.57Z"/></g></g></svg>